<?xml version="1.0" encoding="UTF-8" standalone="no"?>
<!DOCTYPE svg PUBLIC "-//W3C//DTD SVG 1.1//EN" "http://www.w3.org/Graphics/SVG/1.1/DTD/svg11.dtd">
<svg width="100%" height="100%" viewBox="0 0 300 300" version="1.1" xmlns="http://www.w3.org/2000/svg" xmlns:xlink="http://www.w3.org/1999/xlink" xml:space="preserve" xmlns:serif="http://www.serif.com/" style="fill-rule:evenodd;clip-rule:evenodd;stroke-linejoin:round;stroke-miterlimit:2;">
    <g id="Artboard1" transform="matrix(1,0,0,1,-0.640856,-0.272125)">
        <rect x="0.641" y="0.272" width="299.929" height="299.929" style="fill:none;"/>
        <g transform="matrix(1.31943,0,0,1.12856,-47.2831,-1.98764)">
            <path d="M152.212,201.371L197.755,172.13L223.112,254.529L154.56,241.172L152.212,201.371Z" style="fill:white;"/>
        </g>
        <g transform="matrix(1.31943,0,0,1.12856,-47.2831,-1.98764)">
            <path d="M145.509,241.172L76.949,254.529L102.228,172.13L147.803,201.371L145.509,241.172Z" style="fill:white;"/>
        </g>
        <g transform="matrix(-1.24891,0,0,1.16735,333.447,-35.3401)">
            <path d="M146.372,43.357L193.058,184.584L146.372,219.227L99.609,184.693L146.372,43.357Z" style="fill:white;"/>
        </g>
        <g transform="matrix(1.20309,0,0,1.27732,-18.5778,-63.8999)">
            <ellipse cx="140.614" cy="226.389" rx="18.702" ry="18.789" style="fill:rgb(185,13,21);"/>
        </g>
    </g>
</svg>
